<?xml version="1.0" standalone="no"?><!DOCTYPE svg PUBLIC "-//W3C//DTD SVG 1.1//EN" "http://www.w3.org/Graphics/SVG/1.1/DTD/svg11.dtd"><svg t="1653032105268" class="icon" viewBox="0 0 1024 1024" version="1.1" xmlns="http://www.w3.org/2000/svg" p-id="12092" xmlns:xlink="http://www.w3.org/1999/xlink" width="200" height="200"><defs><style type="text/css">@font-face { font-family: feedback-iconfont; src: url("//at.alicdn.com/t/font_1031158_u69w8yhxdu.woff2?t=1630033759944") format("woff2"), url("//at.alicdn.com/t/font_1031158_u69w8yhxdu.woff?t=1630033759944") format("woff"), url("//at.alicdn.com/t/font_1031158_u69w8yhxdu.ttf?t=1630033759944") format("truetype"); }
</style></defs><path d="M387 922H137c-19.3 0-35-15.7-35-35V555.2c0-32 24.7-58.1 55-58.1h210c30.3 0 55 26.1 55 58.1V887c0 19.3-15.7 35-35 35z m-215-70h180V567.1H172V852z" fill="#bfbfbf" p-id="12093"></path><path d="M637 922H387c-19.3 0-35-15.7-35-35V157c0-30.3 24.7-55 55-55h210c30.3 0 55 24.7 55 55v730c0 19.3-15.7 35-35 35z m-215-70h180V172H422v680z" fill="#bfbfbf" p-id="12094"></path><path d="M887 922H637c-19.3 0-35-15.7-35-35V455.9c0-30.3 24.7-55 55-55h210c30.3 0 55 24.7 55 55V887c0 19.3-15.7 35-35 35z m-215-70h180V470.9H672V852z" fill="#bfbfbf" p-id="12095"></path></svg>