<?xml version="1.0" standalone="no"?><!DOCTYPE svg PUBLIC "-//W3C//DTD SVG 1.1//EN" "http://www.w3.org/Graphics/SVG/1.1/DTD/svg11.dtd"><svg t="1653032225971" class="icon" viewBox="0 0 1024 1024" version="1.1" xmlns="http://www.w3.org/2000/svg" p-id="13412" data-spm-anchor-id="a313x.7781069.0.i7" xmlns:xlink="http://www.w3.org/1999/xlink" width="200" height="200"><defs><style type="text/css">@font-face { font-family: feedback-iconfont; src: url("//at.alicdn.com/t/font_1031158_u69w8yhxdu.woff2?t=1630033759944") format("woff2"), url("//at.alicdn.com/t/font_1031158_u69w8yhxdu.woff?t=1630033759944") format("woff"), url("//at.alicdn.com/t/font_1031158_u69w8yhxdu.ttf?t=1630033759944") format("truetype"); }
</style></defs><path d="M684.352 302.464a28.8 28.8 0 0 1 1.376 40.736l-142.752 152.704a28.736 28.736 0 0 1-21.696 9.152 28.704 28.704 0 0 1-21.632-9.152l-142.784-152.704a28.8 28.8 0 1 1 42.112-39.36l122.304 130.88 122.368-130.88a28.8 28.8 0 0 1 40.704-1.376z" fill="#bfbfbf" p-id="13413" data-spm-anchor-id="a313x.7781069.0.i6" class="selected"></path><path d="M838.72 96a83.52 83.52 0 0 1 83.52 83.52v691.2a83.52 83.52 0 0 1-83.52 83.52H205.12a83.52 83.52 0 0 1-83.52-83.52l-0.032-161.312-31.648 0.032a25.92 25.92 0 0 1-25.728-22.656L64 683.52a25.92 25.92 0 0 1 25.92-25.92l31.648-0.032v-236.16l-31.648 0.032a25.92 25.92 0 0 1-25.728-22.656L64 395.52a25.92 25.92 0 0 1 25.92-25.92l31.648-0.032L121.6 179.52A83.52 83.52 0 0 1 205.12 96h633.6z m0 51.84H205.12a31.68 31.68 0 0 0-31.68 31.68l-0.032 215.52 0.032 0.48v0.48l-0.032 287.04 0.032 0.48v187.2c0 17.504 14.176 31.68 31.68 31.68h633.6a31.68 31.68 0 0 0 31.68-31.68V179.52a31.68 31.68 0 0 0-31.68-31.68z m-460.8 377.28a28.8 28.8 0 1 1 0-57.6h288a28.8 28.8 0 1 1 0 57.6h-115.2l-0.032 57.6h115.232a28.8 28.8 0 0 1 28.576 25.184l0.224 3.616a28.8 28.8 0 0 1-28.8 28.8h-115.232l0.032 112a28.8 28.8 0 0 1-25.184 28.576l-3.616 0.224a28.8 28.8 0 0 1-28.8-28.8l-0.032-112H377.92a28.8 28.8 0 0 1-28.576-25.184l-0.224-3.616a28.8 28.8 0 0 1 28.8-28.8h115.168l0.032-57.6z" fill="#bfbfbf" p-id="13414" data-spm-anchor-id="a313x.7781069.0.i8" class="selected"></path></svg>